# xmcd
#
# Track frame offsets:
#	150
#	13607
#	31907
#	48865
#	62435
#	76177
#	92330
#	105455
#	120012
#	135142
#	155912
#	166350
#	176820
#	195085
#	207950
#
# Disc length: 3025 seconds
#
# Revision: 5
# Processed by: cddbd v1.5.2PL0 Copyright (c) Steve Scherf et al.
# Submitted via: EZCDAudioConverter 3.0.3.2
#
DISCID=a40bcf0f
DTITLE=Миша Гулько - Избранное
DYEAR=1993
DGENRE=Øàíñîí
TTITLE0=Если я заболею
TTITLE1=Россия с нами
TTITLE2=Есть только миг
TTITLE3=Пиши, мой друг
TTITLE4=Постой, паровоз
TTITLE5=Почему ты замужем
TTITLE6=Цыганский костер
TTITLE7=Я люблю
TTITLE8=Слепой скрипач
TTITLE9=В память о маме
TTITLE10=Реквием
TTITLE11=Я так давно не видел маму
TTITLE12=Одессит Мишка
TTITLE13=От Москвы до Бреста
TTITLE14=Одна победа
EXTD=
EXTT0=
EXTT1=
EXTT2=
EXTT3=
EXTT4=
EXTT5=
EXTT6=
EXTT7=
EXTT8=
EXTT9=
EXTT10=
EXTT11=
EXTT12=
EXTT13=
EXTT14=
PLAYORDER=
